<?xml version="1.0" standalone="no"?><!DOCTYPE svg PUBLIC "-//W3C//DTD SVG 1.1//EN" "http://www.w3.org/Graphics/SVG/1.1/DTD/svg11.dtd"><svg class="icon" width="200px" height="200.00px" viewBox="0 0 1024 1024" version="1.1" xmlns="http://www.w3.org/2000/svg"><path fill="#333333" d="M170.666667 853.333333v-256a341.333333 341.333333 0 1 1 682.666666 0v256h42.666667v85.333334H128v-85.333334h42.666667z m85.333333 0h512v-256a256 256 0 1 0-512 0v256z m213.333333-768h85.333334v128h-85.333334V85.333333z m374.528 119.808l60.330667 60.330667-90.453333 90.496-60.373334-60.330667 90.496-90.496zM119.808 265.472l60.330667-60.330667 90.496 90.453334L210.346667 356.010667 119.808 265.472zM298.666667 597.333333a213.333333 213.333333 0 0 1 213.333333-213.333333v85.333333a128 128 0 0 0-128 128H298.666667z" /></svg>