<?xml version="1.0" standalone="no"?><!DOCTYPE svg PUBLIC "-//W3C//DTD SVG 1.1//EN" "http://www.w3.org/Graphics/SVG/1.1/DTD/svg11.dtd"><svg class="icon" width="200px" height="200.00px" viewBox="0 0 1024 1024" version="1.1" xmlns="http://www.w3.org/2000/svg"><path fill="#333333" d="M512 938.666667a384 384 0 1 1 0-768 384 384 0 0 1 0 768z m0-85.333334a298.666667 298.666667 0 1 0 0-597.333333 298.666667 298.666667 0 0 0 0 597.333333z m42.666667-298.666666h128v85.333333h-213.333334V341.333333h85.333334v213.333334zM74.538667 268.032l150.826666-150.826667 60.373334 60.330667L134.826667 328.405333 74.538667 268.032z m724.053333-150.826667l150.869333 150.826667-60.330666 60.373333-150.869334-150.869333 60.373334-60.330667z" /></svg>