<svg t="1603720661745" class="icon" viewBox="0 0 1024 1024" version="1.1" xmlns="http://www.w3.org/2000/svg" p-id="6754" width="16" height="16"><path d="M687 162.5c-33.7-13.5-59.5-14.2-94.2-6.7-72.2 15.6-271.3 84.7-301.7 95.5-27.2 9.7-152.9 40.2-183.9 76.3-3.6 4.2-6 8.5-6.7 12.8-13.2 77.4 3.9 121.4 3.9 121.4s0 0.3-0.1 1v0.3c0 0.2-0.1 0.4-0.1 0.6 0 0.3-0.1 0.6-0.1 1 0 0.2-0.1 0.5-0.1 0.8-0.1 0.4-0.1 0.9-0.2 1.4 0 0.2-0.1 0.5-0.1 0.7-0.1 0.7-0.2 1.4-0.3 2.2v0.2c-0.1 0.5-0.1 0.9-0.2 1.4v0.1c-0.1 0.5-0.1 1.1-0.2 1.6-0.1 0.6-0.2 1.2-0.2 1.9-0.1 0.6-0.2 1.2-0.2 1.9-0.5 4.1-1.2 9-1.9 14.5-0.1 0.5-0.1 1.1-0.2 1.7-0.5 3.6-0.9 7.5-1.4 11.5-0.2 1.4-0.3 2.8-0.5 4.3 0 0.2 0 0.3-0.1 0.5-0.1 0.5-0.1 1.1-0.2 1.6 0 0.3-0.1 0.7-0.1 1-0.2 1.3-0.3 2.6-0.5 4 0 0.3-0.1 0.5-0.1 0.8-0.1 0.9-0.2 1.7-0.3 2.6-0.3 2.4-0.6 4.9-0.8 7.4-0.5 4.7-1 9.5-1.6 14.4-0.1 1-0.2 2.1-0.3 3.1-0.3 2.8-0.6 5.6-0.8 8.4-0.1 1.3-0.3 2.6-0.4 3.9-0.2 1.5-0.3 3-0.4 4.5-0.2 2.1-0.4 4.2-0.6 6.2 0 0.4-0.1 0.9-0.1 1.3-0.2 2.5-0.5 5.1-0.7 7.6-0.1 1.3-0.2 2.5-0.3 3.8-0.2 2.5-0.4 4.9-0.6 7.4-0.1 1.4-0.2 2.7-0.3 4.1-0.1 0.9-0.1 1.8-0.2 2.7-0.4 4.8-0.7 9.6-1 14.4-0.1 1-0.1 2.1-0.2 3.1l-0.1 2.6c-0.1 1.2-0.1 2.5-0.2 3.7s-0.1 2.5-0.2 3.7-0.1 2.4-0.2 3.6c-0.1 1.3-0.1 2.6-0.2 3.8 0 1.1-0.1 2.3-0.1 3.4-0.1 1.5-0.1 3-0.1 4.5-0.1 1.8-0.1 3.7-0.1 5.5 0 1.2 0 2.4-0.1 3.6v2.9c-0.1 11.6 0.2 22.2 1 31.2-5-6.5-8.1-12.5-8.9-17.9-8.5-59.2 14.8-219.9 14.8-219.9s-16.7-42.8-3.9-118.3c0.7-4.2 3-8.4 6.5-12.5 30.2-35.1 152.6-64.9 179.1-74.3 29.6-10.6 223.6-77.8 293.9-93 41.8-9.1 70.3-5.9 116.8 18.2z" fill="#FFFFFF" p-id="6755"></path><path d="M944 468.4c-98.4 15.4-85.9 111.7-182.2 129.5-72.3 13.4-63.8-79.4-129.8-39.8-31.4 18.8-35.6 67-81.6 87.9s-92.6-16.4-92.6-16.4 29.8-61 13.1-103.6c0.5 0.6 20 24.2 61.6 13.4 24.1-6.2 22.3-58.1 59.3-71.2 59.1-20.9 86.5 3.2 127 0.3 64.4-4.7 44.5-41.6 82.7-48.4 102.6-18.3 85.3-65.6 142.4-73.1 21.9 38.2 15.1 74.8 0.1 121.4z" fill="#B16939" p-id="6756"></path><path d="M955 635.9c-0.7 27.1-4.2 49.7-12.6 60.3v0.1c-0.5 0.6-1.1 1.2-1.8 1.9-11.3 10.6-50.9 29.7-103.3 51.8-37-2.2-61.4-20.5-95.5-3.4-69.1 34.5-77.5-13.9-148.1-33-60.7-16.5-103.2 58.8-135.2 78.3 0-0.5 0.1-1 0.1-1.5 0.1-1.3 0.2-2.7 0.4-4 0-0.3 0.1-0.6 0.1-0.9 0-0.2 0-0.4 0.1-0.7 0.2-2 0.3-4.1 0.5-6.1 0-0.4 0.1-0.7 0.1-1.1 0.1-1.6 0.2-3.2 0.3-4.9l0.3-4.2c0.1-1.5 0.2-2.9 0.2-4.4 0.1-1.5 0.2-2.9 0.2-4.4 0.1-1.3 0.1-2.6 0.2-3.9 0-0.6 0-1.1 0.1-1.7 0.1-2.4 0.2-4.9 0.3-7.3 0-1.5 0.1-2.9 0.1-4.4 0-1.4 0.1-2.9 0.1-4.3 0.1-5 0.2-10 0.2-14.8 0.3-52-3.6-93.8-3.6-93.8s46.5 37.4 92.6 16.4c46-20.9 50.2-69.1 81.6-87.9 66-39.6 57.5 53.1 129.8 39.8 96-17.8 83.4-114 181.8-129.4 0 1.1 0 2.3 0.1 3.7 1.2 26 12.4 105.4 10.9 163.8z" fill="#CA7B38" p-id="6757"></path><path d="M944 346.8c-8.7 1.1-17.2 3.5-24.9 7.6-6.3 3.4-11.9 8-17.1 12.9-5.5 5.2-10.7 10.8-16.3 15.9-6.9 6.2-14.4 11.8-22.5 16.4-11.1 6.3-23.1 10.9-35.4 14.4-8.2 2.3-16.5 4.2-24.9 5.7-4.8 0.9-9.4 2-13.7 4.3-6.5 3.4-10.9 9-15 14.9-4.3 6.3-8.7 12.4-14.8 17.1-9.4 7.1-21.2 10.1-32.7 11.6-6.9 0.9-13.7 1.3-20.6 0.9-6-0.3-12-1.2-17.9-2.2-12.1-2.1-24.1-5-36.3-6.2-14.9-1.5-29.9-0.3-44.5 3.3-4.5 1.1-8.9 2.4-13.3 3.9-3.2 1.1-6.3 2.3-9.2 3.9-5 2.8-9.3 6.5-13 10.8-7.2 8.4-11.9 18.6-16.5 28.6-2.1 4.6-4.2 9.2-6.7 13.6-2.1 3.8-4.6 7.5-7.8 10.4-1.4 1.3-3 2.4-4.7 3.3-2.6 1.3-5.5 1.9-8.3 2.4-7.4 1.5-14.9 2.1-22.4 1.4-10-0.9-19.8-4.2-28-10.2-2-1.5-3.9-3.1-5.6-4.9-0.3-0.3-0.6-0.6-0.8-0.9-0.5-0.8-0.8-2-1.2-2.9-0.5-1.1-1-2.2-1.6-3.3-1-2-2.2-4-3.4-6-10-16.2-24.3-29.6-39-41.4-15.3-12.3-31.7-23.2-48.4-33.3-8.3-5-16.6-9.8-25.1-14.4 20.8 2.8 42.1 4.4 63.1 2.8 10.9-0.8 22.5-2.4 32.2-7.6 5.9-3.2 10.8-8.1 12.6-14.7 1.7-6.5 0.6-13.4-1.3-19.7-2.3-7.7-5.9-15-9.6-22.2-4-7.6-8.2-14.9-12.3-22.5-3.6-6.6-7.1-13.3-9.4-20.5-1.6-5.1-2.9-11-0.8-16.1 2.9-7.2 11.7-9.4 18.5-11.2 16.1-4.1 32.8-3.4 49.3-2.3 16.6 1 33.3 2.1 49.7-1.1 8.9-1.8 17.5-4.8 25.5-9 9.1-4.8 18-11.2 25-18.7 5.9-6.3 10.3-13.8 12.5-22.1 2-7.6 2.3-15.5 1.8-23.4-0.9-16.1-4.4-32.2-2-48.3 0.6-4.2 1.6-8.3 3.1-12.3 0.3-0.9 0.7-1.9 1.1-2.8 0.2-0.5 0.1-0.4 0.6-0.6 0.2-0.1 0.5-0.1 0.8-0.1 0.8-0.1 1.5-0.2 2.3-0.3 2.8-0.3 5.6-0.6 8.3-0.7 11-0.7 22-0.1 32.8 2 21.4 4 41.6 13.2 60.7 23.4 18.4 9.8 36.2 20.7 53.8 31.9 17.1 10.8 34 21.9 50.9 33 18.5 12.2 37.3 24.1 55.2 37.2 17.5 12.7 34.4 26.6 48.7 42.8 7 8 13.4 16.4 18.5 25.5z" fill="#E29B47" p-id="6758"></path><path d="M457.9 629.5s-22.8-29.7-77.5-56.8c-72.7-36.1-84.3 8.2-173.8-9.1-55.6-10.7-66.8-54.6-102.3-101.1v0.2c0.1-0.7 0.1-1 0.1-1s-17.1-44-3.9-121.4c0.7-4.3 3.1-8.6 6.7-12.8C147 331.8 434.7 433.4 471 525.9c16.7 42.6-13.1 103.6-13.1 103.6z" fill="#EEE1CF" p-id="6759"></path><path d="M590.4 266.2C537 313.3 486.9 277 436.6 295.8c-50.3 18.7 98.9 127.4-28.2 132.1-17.8 0.7-36.7-0.6-56-3.2-96.9-53.2-220-94.4-245-97.1 31-36 156.7-66.6 183.9-76.3 30.4-10.9 229.5-79.9 301.7-95.5 6.6-1.4 12.8-2.5 18.8-3.3-17.5 39 16.8 80-21.4 113.7z" fill="#F5B764" p-id="6760"></path><path d="M461.6 720.3c0 13.7-0.3 27.4-1 41-0.3 6.7-0.8 13.4-1.3 20-0.2 2.8 0.1 6.4-0.8 9.1-0.8 2.4-3.1 3.1-5.4 4.3-11.2 5.8-22.7 8.9-34.2 2.1-10.6-6.2-18.5-16.6-25.7-26.3-14.7-19.8-28.4-42.4-49.3-56.4-20.6-13.8-47.8-14-67.2 2.1-9.2 7.6-16.1 17.7-21.4 28.2-2.7 5.3-5 10.9-7 16.5-1.9 5.5-4 10.3-8.9 13.8-10.2 7.1-24.6 7.4-36.6 7.3-5.8-0.1-11.2-4.8-16-7.7-5.7-3.5-11.3-7-16.9-10.5-21.9-14.1-44.2-29.1-62.5-47.8-8.5-8.7-16.8-18.5-18.3-31-1.7-13.1-1.7-26.5-1.5-39.8 0.8-54.6 7.2-109.3 14.3-163.4 0.8-6.4 1.8-12.8 2.6-19.2 10.4 13.6 19.4 28.2 28.7 42.6 8.7 13.4 17.8 26.8 29.8 37.4 24.6 21.8 60.3 26.4 92 25.1 17.2-0.7 33.7-4.7 50.6-7.6 17.3-2.9 34.2-2.4 50.9 2.8 15.7 4.9 30.4 12.6 44.5 20.9 14.4 8.5 28.2 18.2 40.8 29.3 3.3 2.9 6.5 5.9 9.5 9 2.9 2.9 6.6 5.8 6.9 10 0.8 9.5 1.4 19.1 1.9 28.6 1 19.9 1.6 39.8 1.5 59.6z" fill="#EAD4C1" p-id="6761"></path><path d="M458.3 791.8c-0.4 4-0.8 8-1.3 12l-0.3 2.7c-0.2 1.7-0.4 3.4-0.7 5.1-0.2 1.2-0.3 2.5-0.5 3.7-0.2 1.7-0.5 3.5-0.8 5.2-0.2 1.4-0.4 2.8-0.7 4.2-0.2 1.4-0.5 2.8-0.7 4.1-0.2 1.4-0.5 2.7-0.8 4.1-0.3 1.4-0.5 2.7-0.8 4.1-0.3 1.3-0.6 2.7-0.8 4-0.1 0.7-0.3 1.3-0.4 2s-0.3 1.3-0.5 2l-0.9 3.9c-0.1 0.6-0.3 1.3-0.5 1.9-0.2 0.6-0.3 1.3-0.5 1.9-0.2 0.9-0.5 1.7-0.7 2.6-0.2 0.8-0.5 1.7-0.7 2.5-0.3 0.9-0.5 1.8-0.8 2.7-0.6 2.1-1.3 4.3-2 6.3-0.2 0.7-0.5 1.4-0.7 2 0 0.1-0.1 0.2-0.1 0.3-0.3 0.9-0.6 1.8-0.9 2.6-0.3 0.9-0.7 1.8-1 2.7l-0.9 2.4c-0.1 0.3-0.3 0.6-0.4 0.9-0.2 0.6-0.5 1.2-0.8 1.8 0 0.1-0.1 0.2-0.1 0.3-0.4 0.8-0.7 1.6-1.1 2.4-0.3 0.7-0.6 1.4-0.9 2-0.8 1.8-1.7 3.5-2.6 5.2-0.3 0-0.5 0-0.8-0.1h-0.1c-0.2 0-0.5-0.1-0.8-0.1-0.6-0.1-1.2-0.2-1.9-0.3h-0.1c-0.2 0-0.4-0.1-0.6-0.1-0.3-0.1-0.7-0.1-1-0.2-0.1 0-0.2 0-0.3-0.1h-0.2c-0.3-0.1-0.6-0.1-0.9-0.2-0.1 0-0.2 0-0.3-0.1-1-0.2-2.1-0.5-3.2-0.8-0.4-0.1-0.7-0.2-1.1-0.3-0.7-0.2-1.5-0.4-2.3-0.6h-0.1c-1.5-0.4-3-0.9-4.6-1.4-0.7-0.2-1.3-0.4-2-0.7-0.3-0.1-0.7-0.2-1-0.3-0.5-0.2-1-0.3-1.5-0.5s-1-0.3-1.4-0.5c-0.5-0.2-1-0.3-1.5-0.5s-1-0.3-1.5-0.5c-0.2-0.1-0.4-0.1-0.6-0.2-0.7-0.2-1.5-0.5-2.2-0.8-1.2-0.4-2.5-0.9-3.8-1.4-2.1-0.8-4.2-1.6-6.4-2.4-1.7-0.7-3.5-1.4-5.3-2.1-0.1 0-0.1-0.1-0.2-0.1-0.8-0.3-1.6-0.6-2.4-1h-0.1c-0.9-0.4-1.9-0.8-2.8-1.1-0.7-0.3-1.4-0.6-2.1-0.8-1.7-0.7-3.4-1.4-5.2-2.1-0.9-0.4-1.7-0.7-2.6-1.1-0.1-0.1-0.3-0.1-0.4-0.2-0.8-0.3-1.5-0.6-2.3-1-0.9-0.4-1.8-0.8-2.7-1.1-0.9-0.4-1.8-0.8-2.7-1.1-2.1-0.9-4.2-1.8-6.4-2.7-1.7-0.7-3.3-1.5-5-2.2-1-0.4-1.9-0.8-2.9-1.3-2-0.9-4.1-1.8-6.1-2.7-0.9-0.4-1.9-0.8-2.8-1.3-1.2-0.5-2.5-1.1-3.7-1.7-1.8-0.8-3.5-1.6-5.3-2.4-3.1-1.4-6.3-2.9-9.5-4.4-1-0.5-2.1-1-3.2-1.5-14.8-6.9-30.2-14.4-45.7-22.3-1.1-0.6-2.2-1.1-3.3-1.7-1.9-1-3.8-2-5.8-3-1.2-0.6-2.3-1.2-3.5-1.8-7.6-4-15.3-8-22.9-12.1-1.2-0.7-2.5-1.3-3.7-2-0.2-0.1-0.4-0.2-0.7-0.4-2.1-1.1-4.2-2.3-6.3-3.4-1.2-0.7-2.4-1.3-3.5-2-2.7-1.5-5.3-3-8-4.5l-3.6-2.1-3.6-2.1c-3.5-2-6.9-4-10.3-6 23.1 0.8 42.6-3 47.2-16.7 12.5-37.7 35-65 70.6-61.2 35.7 3.8 57.3 42.3 78.4 69.7 14.1 18.4 28 31.7 45.6 26 6.1-2 11.7-4.8 16.9-8z" fill="#EAD4C1" p-id="6762"></path><path d="M837.1 750c-12.5 5.3-25.1 10.5-37.7 15.6-13.3 5.4-26.6 10.6-39.9 15.9-13.2 5.2-26.5 10.2-39.8 15.3-13.4 5.1-26.9 10.1-40.4 15.1-13.3 4.9-26.6 9.7-40 14.6-13.4 4.8-26.9 9.6-40.3 14.3-13.3 4.6-26.7 9.2-40 13.7-12.9 4.3-25.8 8.6-38.7 12.7-13.2 4.2-26.5 8.3-39.8 12.2-12.5 3.6-25.1 7.3-37.9 9.4-2.7 0.5-5.5 0.9-8.3 0.8 5.5-10.2 9.4-21.3 12.5-32.4 3.3-11.6 5.7-23.4 7.6-35.2 0.9-6 1.8-12 2.5-18 0.4-3.1 0.7-6.2 1-9.3 0.1-0.6 0.1-1.3 0.2-1.9 0.1-0.7 0.1-0.8 0.6-1.1 0.6-0.4 1.1-0.7 1.7-1.1 4.8-3.3 9.2-7.1 13.4-11.1 10.4-9.8 20.1-20.4 30.4-30.2 11-10.5 22.7-20.6 36-27.9 13-7.1 27.6-11.2 42.5-9.6 9.1 1 18 3.9 26.6 7.2 8.3 3.1 16.4 6.9 24.2 11.2 12.6 6.9 24.4 15.4 37.3 21.7 5.7 2.8 11.7 5 17.9 6.1 6.8 1.3 13.8 1.2 20.6 0.1 8.9-1.4 17.4-4.5 25.6-8.1 5-2.2 9.8-4.9 15-6.7 4.7-1.7 9.7-2.8 14.7-3.3 19.3-2 38 5.1 56.7 8.4 5.3 0.6 10.6 1.2 15.8 1.6z" fill="#B16939" p-id="6763"></path><path d="M458.3 791.8c-2.3 23.5-5.8 47.1-12.7 69.7-1.7 5.5-3.5 10.9-5.7 16.2-1.1 2.7-2.3 5.5-3.6 8.1-0.3 0.5-0.5 1.1-0.8 1.6-0.2 0.4-0.6 1.7-1 1.9-0.2 0.1-0.9-0.1-1.2-0.1l-2.1-0.3c-5.1-0.9-10.1-2.4-15-3.9-5.4-1.7-10.7-3.6-15.9-5.5-21.6-8.1-42.9-17.3-64-26.8-22-10-43.7-20.6-65.2-31.5-21.6-11-42.9-22.6-63.9-34.7-2.5-1.5-5.1-3-7.6-4.4 11.7 0 23.8 0.2 34.8-4.5 4-1.7 7.9-4.3 10.3-8 1.3-2 2-4.1 2.8-6.4 1-2.8 2-5.6 3.2-8.4 4.2-10.2 9.4-20.1 16.4-28.7 6.2-7.6 13.9-14.1 22.9-18 9.3-4 19.7-5.1 29.8-3.6 10.5 1.6 20.2 6.4 28.5 12.9 8.8 6.8 16.3 15.2 23.2 23.9 7 8.8 13.5 18.1 20.2 27.2 3.7 5.1 7.6 10.1 11.7 14.8 4.1 4.6 8.5 9 13.6 12.5 4.4 2.9 9.3 5.1 14.6 5.4 6.2 0.4 12.1-1.8 17.6-4.3 3.1-1.6 6.2-3.3 9.1-5.1z" fill="#E2C2A8" p-id="6764"></path><path d="M812.7 703.8c-2.7-1.2-5.8-1.1-8.6 0-65.8 27.8-155.4 61.6-239.7 90.5-90.1 30.8-139.2 44.1-148 43.6-6-0.4-26.2-6.4-63.7-22.4-34.4-14.6-73.8-33.5-110.9-53.2-108-57.3-149-95.2-151.3-111.6-7.4-52.2 10.9-189.1 14.7-216 0.1-0.5 0.1-0.8 0.1-0.9v-0.1c0.2-1.7 0-3.5-0.5-5.1l-0.1-0.2c-5.4-14-12.9-55.6-3.2-112.5 0.2-1.4 1.1-3.7 3.8-6.9l0.3-0.3c22-25.6 90.7-46.8 134.5-59.8l4.4-1.3c2.8-0.8 5.2-2.7 6.6-5.3s1.7-5.7 0.8-8.5c-0.8-2.8-2.7-5.1-5.3-6.5-2.6-1.4-5.6-1.7-8.5-0.8l-3.9 1.1-1 0.3c-48.2 14.3-115.3 35.1-143 64.7h-0.1l-1.5 1.7c-4.9 5.7-8 11.7-9 17.8-11.5 67.9 0 110.7 3.4 121.2-2.2 15.8-22.6 162.8-14.4 220.3 4.3 29.8 59 72.9 162.7 127.9 77.4 41.1 161.6 76.9 183.8 78.2h1.3c21.5 0 108.2-28.7 158-45.8 83.6-28.7 172.7-62.4 238.2-90.1 5.6-2.3 8.2-8.8 5.9-14.4-1-2.4-3.1-4.5-5.8-5.6zM926.1 470.8c-1.5-13.5-2.6-24.3-2.9-30.4 13-40.6 18.8-72.4 7.7-105.2-11.9-35.1-42.3-67.4-98.8-104.8-75.7-50.1-121.3-80.4-158.8-96.7-36.7-16.1-65.3-18.9-105.6-10.2-49.9 10.7-158.6 46.7-219.1 67.2-5.6 2-8.7 8.2-6.9 13.8v0.1c2 5.6 8.2 8.7 13.9 6.9 48.1-16.3 165.4-55.4 216.7-66.4 35.4-7.7 59.3-5.4 91.3 8.5 34.4 15 79.5 44.5 156.1 95.2 51.4 34.1 80 63.8 90.1 93.5 6.9 20.2 7.9 42.8-8.3 93.1-0.4 1.1-0.6 2.2-0.6 3.4 0 7.5 1.6 21.4 3.5 38.9l0.1 1.1c5.4 47.7 16.6 147-3.3 175.6-3.5 5-2.3 11.9 2.7 15.4 1.8 1.3 4.1 2 6.3 2 3.7 0 7.1-1.8 9-4.8 24.9-35.8 14.2-129.1 7.1-190.7l-0.2-5.5z" fill="#934A19" p-id="6765"></path></svg>