<?xml version="1.0" standalone="no"?><!DOCTYPE svg PUBLIC "-//W3C//DTD SVG 1.1//EN" "http://www.w3.org/Graphics/SVG/1.1/DTD/svg11.dtd"><svg class="icon" width="200px" height="200.00px" viewBox="0 0 1024 1024" version="1.1" xmlns="http://www.w3.org/2000/svg"><path fill="#333333" d="M142.506667 725.333333a427.434667 427.434667 0 0 1-41.728-99.242666 128 128 0 0 0 0.085333-228.138667A426.24 426.24 0 0 1 207.573333 212.906667a128 128 0 0 0 197.589334-114.090667 426.24 426.24 0 0 1 213.632 0.085333 128 128 0 0 0 197.632 114.005334A426.24 426.24 0 0 1 881.493333 298.666667c18.474667 31.957333 32.298667 65.28 41.728 99.242666a128 128 0 0 0-0.085333 228.138667 426.24 426.24 0 0 1-106.709333 185.045333 128 128 0 0 0-197.589334 114.090667 426.24 426.24 0 0 1-213.632-0.085333 128 128 0 0 0-197.632-114.005334A427.434667 427.434667 0 0 1 142.506667 725.333333z m241.493333 8.362667a213.034667 213.034667 0 0 1 96 118.186667c21.290667 2.005333 42.666667 2.048 63.957333 0.042666A213.034667 213.034667 0 0 1 640 733.738667a213.034667 213.034667 0 0 1 150.4-24.106667c12.373333-17.408 23.04-35.968 31.914667-55.381333A213.034667 213.034667 0 0 1 768 512c0-53.76 20.053333-103.978667 54.314667-142.250667a346.709333 346.709333 0 0 0-32-55.381333A213.034667 213.034667 0 0 1 640 290.304a213.034667 213.034667 0 0 1-96-118.186667c-21.290667-2.005333-42.666667-2.048-63.957333-0.042666A213.034667 213.034667 0 0 1 384 290.261333a213.034667 213.034667 0 0 1-150.4 24.106667 340.906667 340.906667 0 0 0-31.914667 55.381333A213.034667 213.034667 0 0 1 256 512a212.906667 212.906667 0 0 1-54.314667 142.250667 346.709333 346.709333 0 0 0 32 55.381333A213.034667 213.034667 0 0 1 384 733.696zM512 640a128 128 0 1 1 0-256 128 128 0 0 1 0 256z m0-85.333333a42.666667 42.666667 0 1 0 0-85.333334 42.666667 42.666667 0 0 0 0 85.333334z" /></svg>